G04 DipTrace 2.4.0.2*
%INLaserPower_v_1.0.GBO*%
%MOMM*%
%ADD10C,0.25*%
%ADD17C,0.155*%
%ADD53C,0.196*%
%ADD54C,0.235*%
%FSLAX53Y53*%
G04*
G71*
G90*
G75*
G01*
%LNBotSilk*%
%LPD*%
X8780Y13050D2*
D10*
X6780D1*
Y12250D1*
X8780D1*
Y13050D1*
Y9100D2*
X6780D1*
Y8300D1*
X8780D1*
Y9100D1*
X12230Y13050D2*
X10230D1*
Y12250D1*
X12230D1*
Y13050D1*
X12180Y9100D2*
X10180D1*
Y8300D1*
X12180D1*
Y9100D1*
X26550Y6800D2*
X28100D1*
Y5800D1*
X26550D1*
Y6800D1*
X19350Y13300D2*
X22250D1*
Y6800D1*
X19350D1*
Y13300D1*
X28150Y11750D2*
X26600D1*
Y12750D1*
X28150D1*
Y11750D1*
X19200Y19450D2*
D17*
X34500D1*
Y500D1*
X19200D1*
Y19450D1*
X450D2*
X16500D1*
Y500D1*
X450D1*
Y19450D1*
X5870Y15024D2*
D53*
X7146D1*
Y14598D1*
X7084Y14416D1*
X6964Y14294D1*
X6842Y14233D1*
X6661Y14173D1*
X6356D1*
X6173Y14233D1*
X6053Y14294D1*
X5931Y14416D1*
X5870Y14598D1*
Y15024D1*
X6114Y13781D2*
X6053Y13659D1*
X5872Y13476D1*
X7146D1*
X7170Y6547D2*
X8446D1*
Y6121D1*
X8384Y5939D1*
X8264Y5817D1*
X8142Y5756D1*
X7961Y5696D1*
X7656D1*
X7473Y5756D1*
X7353Y5817D1*
X7231Y5939D1*
X7170Y6121D1*
Y6547D1*
X7172Y5182D2*
Y4515D1*
X7657Y4879D1*
Y4696D1*
X7718Y4575D1*
X7778Y4515D1*
X7960Y4453D1*
X8081D1*
X8264Y4515D1*
X8386Y4636D1*
X8446Y4818D1*
Y5001D1*
X8386Y5182D1*
X8324Y5242D1*
X8203Y5304D1*
X11970Y15447D2*
X13246D1*
Y15021D1*
X13184Y14839D1*
X13064Y14717D1*
X12942Y14656D1*
X12761Y14596D1*
X12456D1*
X12273Y14656D1*
X12153Y14717D1*
X12031Y14839D1*
X11970Y15021D1*
Y15447D1*
X12275Y14142D2*
X12214D1*
X12092Y14082D1*
X12032Y14021D1*
X11972Y13899D1*
Y13656D1*
X12032Y13536D1*
X12092Y13475D1*
X12214Y13414D1*
X12335D1*
X12457Y13475D1*
X12638Y13596D1*
X13246Y14204D1*
Y13353D1*
X10670Y6627D2*
X11946D1*
Y6202D1*
X11884Y6019D1*
X11764Y5897D1*
X11642Y5837D1*
X11461Y5776D1*
X11156D1*
X10973Y5837D1*
X10853Y5897D1*
X10731Y6019D1*
X10670Y6202D1*
Y6627D1*
X11946Y4776D2*
X10672D1*
X11521Y5384D1*
Y4473D1*
X29593Y6257D2*
X29653Y6377D1*
X29775Y6500D1*
X29896Y6560D1*
X30139D1*
X30261Y6500D1*
X30382Y6377D1*
X30444Y6257D1*
X30504Y6074D1*
Y5770D1*
X30444Y5588D1*
X30382Y5466D1*
X30261Y5346D1*
X30139Y5284D1*
X29896D1*
X29775Y5346D1*
X29653Y5466D1*
X29593Y5588D1*
X29201Y6316D2*
X29079Y6377D1*
X28896Y6558D1*
Y5284D1*
X21574Y15160D2*
Y14249D1*
X21513Y14066D1*
X21391Y13946D1*
X21209Y13884D1*
X21088D1*
X20906Y13946D1*
X20783Y14066D1*
X20723Y14249D1*
Y15160D1*
X20331Y14916D2*
X20209Y14977D1*
X20026Y15159D1*
Y13884D1*
X29916Y14557D2*
X29976Y14677D1*
X30098Y14800D1*
X30219Y14860D1*
X30462D1*
X30584Y14800D1*
X30705Y14677D1*
X30767Y14557D1*
X30827Y14374D1*
Y14070D1*
X30767Y13888D1*
X30705Y13766D1*
X30584Y13646D1*
X30462Y13584D1*
X30219D1*
X30098Y13646D1*
X29976Y13766D1*
X29916Y13888D1*
X29462Y14555D2*
Y14616D1*
X29402Y14738D1*
X29341Y14798D1*
X29219Y14858D1*
X28976D1*
X28856Y14798D1*
X28795Y14738D1*
X28733Y14616D1*
Y14495D1*
X28795Y14373D1*
X28916Y14192D1*
X29524Y13584D1*
X28673D1*
X34046Y4417D2*
D54*
Y3397D1*
Y4126D2*
X33827Y4345D1*
X33680Y4417D1*
X33463D1*
X33316Y4345D1*
X33244Y4126D1*
Y3397D1*
Y4126D2*
X33025Y4345D1*
X32878Y4417D1*
X32661D1*
X32514Y4345D1*
X32440Y4126D1*
Y3397D1*
X31095Y4417D2*
Y3397D1*
Y4198D2*
X31240Y4345D1*
X31387Y4417D1*
X31604D1*
X31751Y4345D1*
X31896Y4198D1*
X31970Y3979D1*
Y3835D1*
X31896Y3616D1*
X31751Y3471D1*
X31604Y3397D1*
X31387D1*
X31240Y3471D1*
X31095Y3616D1*
X30625Y4417D2*
X29823Y3397D1*
Y4417D2*
X30625Y3397D1*
X12869Y18940D2*
X12287Y17409D1*
X11704Y18940D1*
X11233D2*
X11161Y18867D1*
X11087Y18940D1*
X11161Y19014D1*
X11233Y18940D1*
X11161Y18429D2*
Y17409D1*
X10616Y18429D2*
Y17409D1*
Y18138D2*
X10397Y18357D1*
X10250Y18429D1*
X10033D1*
X9887Y18357D1*
X9814Y18138D1*
Y17409D1*
X6988Y18721D2*
X7060Y18866D1*
X7279Y18938D1*
X7424D1*
X7643Y18866D1*
X7790Y18647D1*
X7862Y18283D1*
Y17919D1*
X7790Y17628D1*
X7643Y17481D1*
X7424Y17409D1*
X7352D1*
X7134Y17481D1*
X6988Y17628D1*
X6915Y17847D1*
Y17919D1*
X6988Y18138D1*
X7134Y18283D1*
X7352Y18355D1*
X7424D1*
X7643Y18283D1*
X7790Y18138D1*
X7862Y17919D1*
X6445Y18173D2*
X5602D1*
X5058Y18574D2*
Y18647D1*
X4985Y18793D1*
X4913Y18866D1*
X4766Y18938D1*
X4475D1*
X4330Y18866D1*
X4258Y18793D1*
X4183Y18647D1*
Y18502D1*
X4258Y18355D1*
X4402Y18138D1*
X5132Y17409D1*
X4111D1*
X2911D2*
Y18938D1*
X3640Y17919D1*
X2547D1*
X2077Y18940D2*
X1494Y17409D1*
X911Y18940D1*
X7078Y1003D2*
X7662Y2534D1*
X8245Y1003D1*
X8026Y1513D2*
X7297D1*
X5514Y2170D2*
X5586Y2315D1*
X5733Y2461D1*
X5878Y2534D1*
X6169D1*
X6316Y2461D1*
X6460Y2315D1*
X6535Y2170D1*
X6607Y1951D1*
Y1585D1*
X6535Y1368D1*
X6460Y1222D1*
X6316Y1077D1*
X6169Y1003D1*
X5878D1*
X5733Y1077D1*
X5586Y1222D1*
X5514Y1368D1*
X5043Y1003D2*
X4022Y2532D1*
X3552Y2534D2*
Y1003D1*
X3041D1*
X2822Y1077D1*
X2676Y1222D1*
X2603Y1368D1*
X2531Y1585D1*
Y1951D1*
X2603Y2170D1*
X2676Y2315D1*
X2822Y2461D1*
X3041Y2534D1*
X3552D1*
X967Y2170D2*
X1039Y2315D1*
X1186Y2461D1*
X1331Y2534D1*
X1622D1*
X1769Y2461D1*
X1914Y2315D1*
X1988Y2170D1*
X2060Y1951D1*
Y1585D1*
X1988Y1368D1*
X1914Y1222D1*
X1769Y1077D1*
X1622Y1003D1*
X1331D1*
X1186Y1077D1*
X1039Y1222D1*
X967Y1368D1*
X33811Y18668D2*
X33228Y17137D1*
X32645Y18668D1*
X31811Y18158D2*
X31955Y18086D1*
X32102Y17939D1*
X32174Y17720D1*
Y17575D1*
X32102Y17356D1*
X31955Y17211D1*
X31811Y17137D1*
X31592D1*
X31445Y17211D1*
X31300Y17356D1*
X31226Y17575D1*
Y17720D1*
X31300Y17939D1*
X31445Y18086D1*
X31592Y18158D1*
X31811D1*
X30755D2*
Y17429D1*
X30683Y17211D1*
X30536Y17137D1*
X30317D1*
X30173Y17211D1*
X29954Y17429D1*
Y18158D2*
Y17137D1*
X29264Y18668D2*
Y17429D1*
X29191Y17211D1*
X29045Y17137D1*
X28900D1*
X29483Y18158D2*
X28972D1*
X26802Y18667D2*
X26001D1*
X26438Y18084D1*
X26219D1*
X26074Y18011D1*
X26001Y17939D1*
X25927Y17720D1*
Y17575D1*
X26001Y17356D1*
X26146Y17210D1*
X26365Y17137D1*
X26584D1*
X26802Y17210D1*
X26874Y17284D1*
X26948Y17429D1*
X25384Y17284D2*
X25457Y17210D1*
X25384Y17137D1*
X25310Y17210D1*
X25384Y17284D1*
X24693Y18667D2*
X23893D1*
X24329Y18084D1*
X24110D1*
X23965Y18011D1*
X23893Y17939D1*
X23819Y17720D1*
Y17575D1*
X23893Y17356D1*
X24038Y17210D1*
X24257Y17137D1*
X24476D1*
X24693Y17210D1*
X24765Y17284D1*
X24839Y17429D1*
X23348Y18668D2*
X22765Y17137D1*
X22182Y18668D1*
X34017Y2312D2*
Y2385D1*
X33944Y2531D1*
X33872Y2604D1*
X33725Y2676D1*
X33434D1*
X33289Y2604D1*
X33216Y2531D1*
X33142Y2385D1*
Y2240D1*
X33216Y2093D1*
X33361Y1876D1*
X34091Y1147D1*
X33070D1*
X31725Y2676D2*
X32453D1*
X32525Y2021D1*
X32453Y2093D1*
X32234Y2167D1*
X32016D1*
X31797Y2093D1*
X31651Y1948D1*
X31578Y1729D1*
Y1585D1*
X31651Y1366D1*
X31797Y1219D1*
X32016Y1147D1*
X32234D1*
X32453Y1219D1*
X32525Y1293D1*
X32599Y1438D1*
X30670Y2676D2*
X30889Y2604D1*
X31035Y2385D1*
X31108Y2021D1*
Y1802D1*
X31035Y1438D1*
X30889Y1219D1*
X30670Y1147D1*
X30525D1*
X30306Y1219D1*
X30161Y1438D1*
X30087Y1802D1*
Y2021D1*
X30161Y2385D1*
X30306Y2604D1*
X30525Y2676D1*
X30670D1*
X30161Y2385D2*
X31035Y1438D1*
X29616Y2167D2*
Y1147D1*
Y1876D2*
X29397Y2095D1*
X29251Y2167D1*
X29033D1*
X28887Y2095D1*
X28814Y1876D1*
Y1147D1*
Y1876D2*
X28595Y2095D1*
X28449Y2167D1*
X28232D1*
X28085Y2095D1*
X28011Y1876D1*
Y1147D1*
X26373D2*
X26957Y2678D1*
X27540Y1147D1*
X27321Y1657D2*
X26592D1*
X25724Y2959D2*
D53*
X25846Y2838D1*
X25967Y2656D1*
X26089Y2413D1*
X26149Y2108D1*
Y1865D1*
X26089Y1562D1*
X25967Y1319D1*
X25846Y1137D1*
X25724Y1016D1*
X25149Y2626D2*
Y1593D1*
X25089Y1412D1*
X24967Y1350D1*
X24846D1*
X25332Y2201D2*
X24906D1*
X24454Y1836D2*
X23725D1*
Y1958D1*
X23786Y2080D1*
X23846Y2140D1*
X23968Y2201D1*
X24151D1*
X24271Y2140D1*
X24393Y2018D1*
X24454Y1836D1*
Y1715D1*
X24393Y1533D1*
X24271Y1412D1*
X24151Y1350D1*
X23968D1*
X23846Y1412D1*
X23725Y1533D1*
X23333Y2201D2*
Y1350D1*
Y1958D2*
X23151Y2140D1*
X23028Y2201D1*
X22847D1*
X22725Y2140D1*
X22665Y1958D1*
Y1350D1*
Y1958D2*
X22482Y2140D1*
X22360Y2201D1*
X22179D1*
X22057Y2140D1*
X21995Y1958D1*
Y1350D1*
X21603Y2201D2*
Y925D1*
Y2018D2*
X21481Y2139D1*
X21360Y2201D1*
X21178D1*
X21055Y2139D1*
X20935Y2018D1*
X20873Y1836D1*
Y1714D1*
X20935Y1533D1*
X21055Y1410D1*
X21178Y1350D1*
X21360D1*
X21481Y1410D1*
X21603Y1533D1*
X20419Y2625D2*
Y1775D1*
Y1472D2*
X20481Y1410D1*
X20419Y1350D1*
X20359Y1410D1*
X20419Y1472D1*
X19967Y2959D2*
X19844Y2838D1*
X19724Y2656D1*
X19602Y2413D1*
X19541Y2108D1*
Y1865D1*
X19602Y1562D1*
X19724Y1319D1*
X19844Y1137D1*
X19967Y1016D1*
M02*
