G04 DipTrace 2.4.0.2*
%INLaserreguv2.GTL*%
%MOMM*%
%ADD10C,0.25*%
%ADD13C,0.33*%
%ADD14C,0.5*%
%ADD15C,1.0*%
%ADD19R,1.3X0.6*%
%ADD20R,2.5X2.0*%
%ADD21O,2.5X2.0*%
%ADD24R,1.6X3.0*%
%ADD25R,2.2X3.3*%
%ADD26R,2.2X1.0*%
%ADD27R,1.1X1.4*%
%ADD28R,1.4X1.1*%
%FSLAX53Y53*%
G04*
G71*
G90*
G75*
G01*
%LNTop*%
%LPD*%
X19200Y5300D2*
D14*
X19250Y5250D1*
X21250D1*
Y7750D1*
Y12350D2*
D3*
D15*
X23059D1*
D14*
X24950D1*
X25450Y11850D1*
Y10900D1*
X19250Y3250D2*
D13*
X19350Y3350D1*
X21250D1*
X25450Y9100D2*
D14*
Y3750D1*
X25050Y3350D1*
X21250D1*
X9411Y14339D2*
D15*
X10700Y13050D1*
Y12300D1*
X15350Y10050D2*
X17400D1*
X21250D1*
X10700Y12300D2*
X11850D1*
X14100Y10050D1*
X15350D1*
X17400Y5300D2*
Y10050D1*
X23059Y12350D3*
X9411Y14339D3*
X5950Y7600D3*
X650Y19128D2*
D10*
X34350D1*
X650Y18882D2*
X34350D1*
X650Y18635D2*
X34350D1*
X650Y18388D2*
X34350D1*
X650Y18142D2*
X34350D1*
X650Y17895D2*
X34350D1*
X650Y17648D2*
X34350D1*
X650Y17402D2*
X34350D1*
X650Y17155D2*
X34350D1*
X650Y16908D2*
X34350D1*
X650Y16662D2*
X34350D1*
X650Y16415D2*
X34350D1*
X650Y16168D2*
X34350D1*
X650Y15922D2*
X34350D1*
X650Y15675D2*
X34350D1*
X650Y15428D2*
X9067D1*
X9754D2*
X34350D1*
X650Y15182D2*
X8625D1*
X10195D2*
X34350D1*
X650Y14935D2*
X8422D1*
X10445D2*
X34350D1*
X650Y14688D2*
X8305D1*
X10691D2*
X34350D1*
X650Y14442D2*
X8254D1*
X10937D2*
X34350D1*
X650Y14195D2*
X8262D1*
X12160D2*
X34350D1*
X650Y13948D2*
X8321D1*
X12160D2*
X34350D1*
X650Y13702D2*
X8446D1*
X12160D2*
X34350D1*
X650Y13455D2*
X8664D1*
X12160D2*
X19489D1*
X23343D2*
X34350D1*
X650Y13208D2*
X1891D1*
X5711D2*
X8911D1*
X12554D2*
X19489D1*
X25191D2*
X30235D1*
X32265D2*
X34350D1*
X650Y12962D2*
X1891D1*
X5711D2*
X9161D1*
X12820D2*
X19489D1*
X25613D2*
X29879D1*
X32621D2*
X34350D1*
X650Y12715D2*
X1891D1*
X5711D2*
X9239D1*
X13066D2*
X19489D1*
X25863D2*
X29657D1*
X32843D2*
X34350D1*
X650Y12468D2*
X1891D1*
X5711D2*
X9239D1*
X13312D2*
X19489D1*
X26109D2*
X29508D1*
X32992D2*
X34350D1*
X650Y12222D2*
X1891D1*
X5711D2*
X9239D1*
X17109D2*
X19489D1*
X26277D2*
X29411D1*
X33089D2*
X34350D1*
X650Y11975D2*
X1891D1*
X5711D2*
X9239D1*
X17109D2*
X19489D1*
X26808D2*
X29356D1*
X33144D2*
X34350D1*
X650Y11728D2*
X1891D1*
X5711D2*
X9239D1*
X17109D2*
X19489D1*
X26808D2*
X29340D1*
X33160D2*
X34350D1*
X650Y11482D2*
X1891D1*
X5711D2*
X9239D1*
X17109D2*
X19489D1*
X26808D2*
X29364D1*
X33136D2*
X34350D1*
X650Y11235D2*
X1891D1*
X5711D2*
X9239D1*
X17109D2*
X19489D1*
X23296D2*
X24090D1*
X26808D2*
X29422D1*
X33078D2*
X34350D1*
X650Y10988D2*
X1891D1*
X5711D2*
X9239D1*
X23011D2*
X24090D1*
X26808D2*
X29528D1*
X32972D2*
X34350D1*
X650Y10742D2*
X1891D1*
X5711D2*
X9239D1*
X23011D2*
X24090D1*
X26808D2*
X29688D1*
X32812D2*
X34350D1*
X650Y10495D2*
X1891D1*
X5711D2*
X9239D1*
X23011D2*
X24090D1*
X26808D2*
X29926D1*
X32574D2*
X34350D1*
X650Y10248D2*
X1891D1*
X5711D2*
X9239D1*
X12160D2*
X12271D1*
X23011D2*
X24090D1*
X26808D2*
X30329D1*
X32171D2*
X34350D1*
X650Y10002D2*
X12520D1*
X23011D2*
X24090D1*
X26808D2*
X34350D1*
X650Y9755D2*
X2887D1*
X4714D2*
X9239D1*
X12160D2*
X12766D1*
X23011D2*
X24090D1*
X26808D2*
X29340D1*
X33160D2*
X34350D1*
X650Y9508D2*
X2481D1*
X5117D2*
X9239D1*
X12160D2*
X13012D1*
X23011D2*
X24090D1*
X26808D2*
X29340D1*
X33160D2*
X34350D1*
X650Y9262D2*
X2243D1*
X5359D2*
X9239D1*
X12160D2*
X13258D1*
X23011D2*
X24090D1*
X26808D2*
X29340D1*
X33160D2*
X34350D1*
X650Y9015D2*
X2079D1*
X5519D2*
X9239D1*
X12160D2*
X13590D1*
X23011D2*
X24090D1*
X26808D2*
X29340D1*
X33160D2*
X34350D1*
X650Y8768D2*
X1973D1*
X5625D2*
X9239D1*
X12160D2*
X13590D1*
X18558D2*
X19489D1*
X23011D2*
X24090D1*
X26808D2*
X29340D1*
X33160D2*
X34350D1*
X650Y8522D2*
X1914D1*
X5687D2*
X9239D1*
X12160D2*
X13590D1*
X18558D2*
X19489D1*
X23011D2*
X24090D1*
X26808D2*
X29340D1*
X33160D2*
X34350D1*
X650Y8275D2*
X1891D1*
X5711D2*
X9239D1*
X12160D2*
X13590D1*
X18558D2*
X19489D1*
X23011D2*
X24090D1*
X26808D2*
X29340D1*
X33160D2*
X34350D1*
X650Y8028D2*
X1907D1*
X5695D2*
X9239D1*
X12160D2*
X13590D1*
X18558D2*
X19489D1*
X23011D2*
X24090D1*
X26808D2*
X29340D1*
X33160D2*
X34350D1*
X650Y7782D2*
X1957D1*
X5640D2*
X9239D1*
X12160D2*
X13590D1*
X18558D2*
X19489D1*
X23011D2*
X24539D1*
X26359D2*
X29340D1*
X33160D2*
X34350D1*
X650Y7535D2*
X2055D1*
X5546D2*
X9239D1*
X12160D2*
X16239D1*
X18558D2*
X19489D1*
X23011D2*
X24539D1*
X26359D2*
X29340D1*
X33160D2*
X34350D1*
X650Y7288D2*
X2204D1*
X5398D2*
X9239D1*
X12160D2*
X16239D1*
X18558D2*
X19489D1*
X23011D2*
X24539D1*
X26359D2*
X29340D1*
X33160D2*
X34350D1*
X650Y7042D2*
X2422D1*
X5175D2*
X9239D1*
X12160D2*
X16239D1*
X18558D2*
X19489D1*
X23011D2*
X24539D1*
X26359D2*
X29340D1*
X33160D2*
X34350D1*
X650Y6795D2*
X2782D1*
X4820D2*
X9239D1*
X12160D2*
X16239D1*
X18558D2*
X19489D1*
X23011D2*
X24539D1*
X26359D2*
X29340D1*
X33160D2*
X34350D1*
X650Y6548D2*
X9239D1*
X12160D2*
X16192D1*
X22160D2*
X24539D1*
X26359D2*
X34350D1*
X650Y6302D2*
X9239D1*
X12160D2*
X16192D1*
X22160D2*
X24539D1*
X26359D2*
X34350D1*
X650Y6055D2*
X9239D1*
X12160D2*
X16192D1*
X22558D2*
X24539D1*
X26359D2*
X34350D1*
X650Y5808D2*
X9239D1*
X12160D2*
X16192D1*
X22558D2*
X24539D1*
X26359D2*
X34350D1*
X650Y5562D2*
X16192D1*
X22558D2*
X24539D1*
X26359D2*
X34350D1*
X650Y5315D2*
X16192D1*
X22558D2*
X24539D1*
X26359D2*
X34350D1*
X650Y5068D2*
X16192D1*
X26359D2*
X34350D1*
X650Y4822D2*
X16192D1*
X26359D2*
X34350D1*
X650Y4575D2*
X16192D1*
X26359D2*
X34350D1*
X650Y4328D2*
X16192D1*
X26359D2*
X34350D1*
X650Y4082D2*
X16192D1*
X26359D2*
X34350D1*
X650Y3835D2*
X16239D1*
X26359D2*
X34350D1*
X650Y3588D2*
X16239D1*
X26343D2*
X34350D1*
X650Y3342D2*
X16239D1*
X26261D2*
X34350D1*
X650Y3095D2*
X16239D1*
X26070D2*
X34350D1*
X650Y2848D2*
X16239D1*
X25824D2*
X34350D1*
X650Y2602D2*
X16239D1*
X25546D2*
X34350D1*
X650Y2355D2*
X16239D1*
X20461D2*
X34350D1*
X650Y2108D2*
X16239D1*
X20461D2*
X34350D1*
X650Y1862D2*
X34350D1*
X650Y1615D2*
X34350D1*
X650Y1368D2*
X34350D1*
X650Y1122D2*
X34350D1*
X650Y875D2*
X34350D1*
X650Y628D2*
X34350D1*
X22133Y6185D2*
X22535D1*
X22540Y5235D1*
X24566D1*
X24565Y7918D1*
X24115Y7915D1*
X24119Y10285D1*
X24115Y10715D1*
Y11469D1*
X23766Y11465D1*
X23602Y11353D1*
X23489Y11299D1*
X23371Y11259D1*
X23249Y11231D1*
X23059Y11215D1*
X19515D1*
Y13485D1*
X22985Y13481D1*
X23059Y13485D1*
X23184Y13478D1*
X23307Y13458D1*
X23428Y13424D1*
X23543Y13377D1*
X23653Y13317D1*
X23759Y13244D1*
X23934Y13235D1*
X24950D1*
X25075Y13226D1*
X25197Y13200D1*
X25314Y13157D1*
X25424Y13097D1*
X25576Y12976D1*
X26076Y12476D1*
X26158Y12381D1*
X26225Y12277D1*
X26292Y12122D1*
X26365Y12085D1*
X26785D1*
X26781Y9715D1*
X26785Y9285D1*
Y7915D1*
X26336D1*
X26335Y3750D1*
X26326Y3625D1*
X26300Y3503D1*
X26257Y3386D1*
X26197Y3276D1*
X26076Y3124D1*
X25676Y2724D1*
X25581Y2642D1*
X25477Y2575D1*
X25363Y2522D1*
X25244Y2486D1*
X25050Y2465D1*
X22538D1*
X22535Y2415D1*
X20437D1*
X20435Y1915D1*
X18065Y1919D1*
X17985Y1915D1*
X16265D1*
Y3966D1*
X16215Y3965D1*
Y6635D1*
X16266D1*
X16265Y7765D1*
X13615D1*
Y9027D1*
X13443Y9125D1*
X13297Y9247D1*
X12135Y10410D1*
Y10165D1*
X9265D1*
Y12880D1*
X8525Y13630D1*
X8452Y13731D1*
X8391Y13840D1*
X8343Y13955D1*
X8307Y14075D1*
X8285Y14198D1*
X8276Y14323D1*
X8281Y14447D1*
X8300Y14571D1*
X8332Y14692D1*
X8377Y14808D1*
X8435Y14919D1*
X8505Y15023D1*
X8586Y15118D1*
X8676Y15204D1*
X8776Y15280D1*
X8883Y15344D1*
X8996Y15396D1*
X9115Y15435D1*
X9237Y15461D1*
X9362Y15473D1*
X9487Y15472D1*
X9611Y15456D1*
X9732Y15428D1*
X9850Y15386D1*
X9962Y15331D1*
X10068Y15265D1*
X10214Y15142D1*
X10918Y14437D1*
X12135Y14435D1*
Y13400D1*
X12289Y13347D1*
X12401Y13292D1*
X12507Y13225D1*
X12653Y13103D1*
X13615Y12140D1*
Y12335D1*
X17085D1*
Y11183D1*
X17900Y11185D1*
X22985D1*
Y8915D1*
X19515Y8919D1*
X19250Y8915D1*
X18535D1*
Y6632D1*
X18585Y6631D1*
X19015Y6635D1*
X19519D1*
X19515Y7365D1*
Y8885D1*
X22985D1*
Y6615D1*
X22137D1*
X22135Y6184D1*
X2040Y13385D2*
X5685D1*
Y10115D1*
X1915D1*
Y13385D1*
X2040D1*
X3552Y6616D2*
X3369Y6625D1*
X3123Y6672D1*
X2888Y6755D1*
X2668Y6873D1*
X2468Y7024D1*
X2294Y7203D1*
X2150Y7406D1*
X2037Y7629D1*
X1960Y7867D1*
X1921Y8114D1*
X1919Y8363D1*
X1955Y8611D1*
X2029Y8849D1*
X2138Y9074D1*
X2280Y9279D1*
X2451Y9461D1*
X2649Y9614D1*
X2867Y9735D1*
X3101Y9822D1*
X3346Y9872D1*
X3550Y9885D1*
X4050Y9881D1*
X4220Y9876D1*
X4466Y9831D1*
X4702Y9750D1*
X4922Y9633D1*
X5123Y9484D1*
X5298Y9306D1*
X5445Y9104D1*
X5558Y8881D1*
X5637Y8644D1*
X5678Y8398D1*
X5685Y8250D1*
X5666Y8001D1*
X5609Y7758D1*
X5516Y7526D1*
X5389Y7311D1*
X5230Y7118D1*
X5044Y6952D1*
X4835Y6816D1*
X4607Y6713D1*
X4366Y6646D1*
X4118Y6616D1*
X3550Y6615D1*
Y6619D1*
X9290Y9935D2*
X12135D1*
Y5665D1*
X9265D1*
Y9935D1*
X9290D1*
X29490Y9885D2*
X33135D1*
Y6615D1*
X29365D1*
Y9885D1*
X29490D1*
X31030Y10115D2*
X30819Y10125D1*
X30622Y10159D1*
X30430Y10217D1*
X30248Y10298D1*
X30076Y10401D1*
X29918Y10524D1*
X29777Y10665D1*
X29654Y10822D1*
X29551Y10993D1*
X29469Y11176D1*
X29410Y11367D1*
X29376Y11564D1*
X29365Y11763D1*
X29379Y11963D1*
X29417Y12159D1*
X29479Y12349D1*
X29563Y12530D1*
X29669Y12700D1*
X29795Y12855D1*
X29939Y12994D1*
X30099Y13114D1*
X30272Y13214D1*
X30456Y13292D1*
X30648Y13347D1*
X30845Y13378D1*
X31050Y13385D1*
X31620Y13381D1*
X31818Y13354D1*
X32012Y13303D1*
X32197Y13229D1*
X32372Y13133D1*
X32535Y13016D1*
X32681Y12880D1*
X32810Y12728D1*
X32920Y12560D1*
X33008Y12381D1*
X33074Y12192D1*
X33116Y11997D1*
X33134Y11798D1*
X33128Y11600D1*
X33098Y11403D1*
X33043Y11210D1*
X32966Y11026D1*
X32867Y10853D1*
X32747Y10693D1*
X32609Y10548D1*
X32454Y10422D1*
X32285Y10316D1*
X32104Y10231D1*
X31914Y10168D1*
X31718Y10130D1*
X31518Y10115D1*
X31000Y10116D1*
X625Y19250D2*
Y625D1*
X34375D1*
Y19375D1*
X625D1*
Y19250D1*
X23550Y5235D2*
D14*
Y4300D1*
X10700Y9935D2*
Y5665D1*
X9265Y7800D2*
X12135D1*
X17450Y3250D2*
Y1915D1*
X16265Y3250D2*
X17450D1*
X31250Y13385D2*
Y10115D1*
X29365Y11750D2*
X33135D1*
D19*
X21250Y5250D3*
Y3350D3*
X23550Y4300D3*
D20*
X3800Y11750D3*
D21*
Y8250D3*
D24*
X10700Y12300D3*
Y7800D3*
D27*
X17400Y5300D3*
X19200D3*
D28*
X25450Y10900D3*
Y9100D3*
D27*
X19250Y3250D3*
X17450D3*
D25*
X15350Y10050D3*
D26*
X21250Y7750D3*
Y10050D3*
Y12350D3*
D20*
X31250Y8250D3*
D21*
Y11750D3*
M02*
