G04 DipTrace 2.4.0.2*
%INLaserreguv2.GTO*%
%MOMM*%
%ADD10C,0.25*%
%ADD12C,0.025*%
%ADD16C,0.155*%
%ADD55C,0.196*%
%ADD56C,0.314*%
%FSLAX53Y53*%
G04*
G71*
G90*
G75*
G01*
%LNTopSilk*%
%LPD*%
X22700Y5750D2*
D10*
X22100D1*
Y2850D1*
X22700D1*
Y5750D1*
Y6200D2*
X22100D1*
X7450Y13500D2*
X150D1*
Y6500D1*
X7450D1*
Y13500D1*
X1000Y12700D2*
X200D1*
Y10800D1*
X1000D1*
Y12700D1*
Y9200D2*
X200D1*
Y7300D1*
X1000D1*
Y9200D1*
X13350Y12050D2*
X12700Y12700D1*
X8700D2*
X8050Y12050D1*
X8700Y12700D2*
X9600D1*
X8050Y12050D2*
Y7450D1*
Y7400D2*
X9600D1*
X11800D2*
X13350D1*
Y12050D1*
X11800Y12700D2*
X12700D1*
X11300Y14150D2*
X10100D1*
G36*
X11700Y8050D2*
Y9050D1*
X12700D1*
X12200Y8550D1*
D1*
X11700Y8050D1*
G37*
Y12050D2*
D10*
G02X11700Y8050I-976J-2000D01*
G01*
X9700Y12050D2*
G03X9700Y8050I976J-2000D01*
G01*
G36*
D2*
Y9050D1*
X8700D1*
X9200Y8300D1*
Y8550D1*
X9700Y8050D1*
G37*
X18150Y5850D2*
D10*
X18450D1*
X18150Y4750D2*
X18450D1*
X26000Y10150D2*
Y9850D1*
X24900Y10150D2*
Y9850D1*
X18500Y2700D2*
X18200D1*
X18500Y3800D2*
X18200D1*
X16850Y6800D2*
X19750D1*
Y13300D1*
X16850D1*
Y6800D1*
X27600Y6500D2*
X34900D1*
Y13500D1*
X27600D1*
Y6500D1*
X34050Y7300D2*
X34850D1*
Y9200D1*
X34050D1*
Y7300D1*
Y10800D2*
X34850D1*
Y12700D1*
X34050D1*
Y10800D1*
X13885Y18842D2*
D12*
X14901D1*
X13807Y18817D2*
X15035D1*
X13743Y18791D2*
X15157D1*
X13691Y18766D2*
X15249D1*
X13668Y18740D2*
X15316D1*
X13644Y18715D2*
X15377D1*
X13616Y18690D2*
X15439D1*
X13504Y18664D2*
X13530D1*
X13583D2*
X15499D1*
X13453Y18639D2*
D3*
X13548D2*
X15556D1*
X13428Y18613D2*
D3*
X13516D2*
X15610D1*
X13478Y18588D2*
X15661D1*
X13441Y18563D2*
X15708D1*
X13407Y18537D2*
X15747D1*
X13392Y18512D2*
X15781D1*
X13383Y18486D2*
X15817D1*
X13301Y18461D2*
X15856D1*
X13279Y18436D2*
X15895D1*
X13253Y18410D2*
X15933D1*
X13225Y18385D2*
X15971D1*
X13196Y18359D2*
X16012D1*
X13165Y18334D2*
X16051D1*
X13136Y18309D2*
X16082D1*
X13112Y18283D2*
X16107D1*
X13091Y18258D2*
X16129D1*
X13069Y18232D2*
X16158D1*
X13046Y18207D2*
X16193D1*
X13025Y18182D2*
X16231D1*
X13005Y18156D2*
X16265D1*
X12983Y18131D2*
X16295D1*
X12957Y18105D2*
X14355D1*
X15022D2*
X16321D1*
X12931Y18080D2*
X14259D1*
X15151D2*
X16343D1*
X12908Y18055D2*
X14185D1*
X15250D2*
X16360D1*
X12888Y18029D2*
X14126D1*
X15321D2*
X16374D1*
X12866Y18004D2*
X14073D1*
X15382D2*
X16391D1*
X12843Y17978D2*
X14026D1*
X15438D2*
X16416D1*
X12822Y17953D2*
X13984D1*
X15487D2*
X16445D1*
X12802Y17928D2*
X13945D1*
X15529D2*
X16473D1*
X12781Y17902D2*
X13910D1*
X15568D2*
X16499D1*
X12757Y17877D2*
X13881D1*
X15606D2*
X16522D1*
X12735Y17851D2*
X13857D1*
X15642D2*
X16541D1*
X12716Y17826D2*
X13836D1*
X15674D2*
X16557D1*
X12699Y17801D2*
X13814D1*
X15699D2*
X16572D1*
X12683Y17775D2*
X13791D1*
X15720D2*
X16592D1*
X12666Y17750D2*
X13766D1*
X15742D2*
X16617D1*
X12649Y17724D2*
X13741D1*
X15762D2*
X16643D1*
X12632Y17699D2*
X13715D1*
X15781D2*
X16666D1*
X12614Y17674D2*
X13687D1*
X15800D2*
X16686D1*
X12594Y17648D2*
X13659D1*
X15824D2*
X16707D1*
X12571Y17623D2*
X13633D1*
X15852D2*
X16726D1*
X12547Y17597D2*
X13610D1*
X15879D2*
X16741D1*
X12527Y17572D2*
X13591D1*
X15899D2*
X16753D1*
X12510Y17547D2*
X13571D1*
X15914D2*
X16765D1*
X12496Y17521D2*
X13548D1*
X15928D2*
X16781D1*
X12483Y17496D2*
X13522D1*
X15944D2*
X16801D1*
X12473Y17470D2*
X13497D1*
X15959D2*
X16824D1*
X12463Y17445D2*
X13474D1*
X15973D2*
X16844D1*
X12454Y17420D2*
X13451D1*
X15987D2*
X16860D1*
X12443Y17394D2*
X13428D1*
X16003D2*
X16875D1*
X12431Y17369D2*
X13407D1*
X16019D2*
X16887D1*
X12421Y17343D2*
X13392D1*
X16033D2*
X16898D1*
X12413Y17318D2*
X13379D1*
X16046D2*
X16907D1*
X12404Y17293D2*
X13364D1*
X16062D2*
X16916D1*
X12394Y17267D2*
X13343D1*
X16077D2*
X16925D1*
X12382Y17242D2*
X13318D1*
X16087D2*
X16933D1*
X12367Y17216D2*
X13294D1*
X16096D2*
X16942D1*
X12349Y17191D2*
X13272D1*
X16105D2*
X16950D1*
X12333Y17166D2*
X13252D1*
X16116D2*
X16958D1*
X12318Y17140D2*
X13235D1*
X16126D2*
X16967D1*
X12306Y17115D2*
X13221D1*
X16135D2*
X16975D1*
X12296Y17089D2*
X13210D1*
X16141D2*
X16982D1*
X12289Y17064D2*
X13200D1*
X16145D2*
X16991D1*
X12283Y17039D2*
X13191D1*
X16149D2*
X17004D1*
X12276Y17013D2*
X13182D1*
X16156D2*
X17017D1*
X12268Y16988D2*
X13174D1*
X16164D2*
X17027D1*
X12263Y16962D2*
X13165D1*
X16171D2*
X17035D1*
X12257Y16937D2*
X13156D1*
X16180D2*
X17044D1*
X12250Y16912D2*
X13145D1*
X16187D2*
X17051D1*
X12242Y16886D2*
X13130D1*
X16192D2*
X17057D1*
X12234Y16861D2*
X13115D1*
X16195D2*
X17063D1*
X12226Y16835D2*
X13102D1*
X16196D2*
X17070D1*
X12218Y16810D2*
X13091D1*
X16196D2*
X17077D1*
X12213Y16785D2*
X13082D1*
X16197D2*
X17081D1*
X12210Y16759D2*
X13076D1*
X16197D2*
X17084D1*
X12205Y16734D2*
X13070D1*
X16197D2*
X17085D1*
X12199Y16708D2*
X13063D1*
X16197D2*
X17085D1*
X12192Y16683D2*
X13056D1*
X16197D2*
X17086D1*
X12188Y16658D2*
X13051D1*
X16197D2*
X17086D1*
X12185Y16632D2*
X13048D1*
X16197D2*
X17086D1*
X12184Y16607D2*
X13043D1*
X16197D2*
X17086D1*
X12182Y16581D2*
X13037D1*
X16197D2*
X17086D1*
X12175Y16556D2*
X13030D1*
X16197D2*
X17086D1*
X12163Y16531D2*
X13026D1*
X16197D2*
X17086D1*
X12150Y16505D2*
X13023D1*
X16197D2*
X17086D1*
X12141Y16480D2*
X13022D1*
X16197D2*
X17086D1*
X12136Y16454D2*
X13022D1*
X16197D2*
X17086D1*
X12134Y16429D2*
X13022D1*
X16197D2*
X17086D1*
X12133Y16404D2*
X13022D1*
X16197D2*
X17086D1*
X12133Y16378D2*
X13022D1*
X16197D2*
X17086D1*
X12133Y16353D2*
X13022D1*
X16197D2*
X17086D1*
X12133Y16327D2*
X13022D1*
X16197D2*
X17086D1*
X12133Y16302D2*
X13022D1*
X16197D2*
X17086D1*
X12133Y16277D2*
X13022D1*
X16197D2*
X17086D1*
X12133Y16251D2*
X13022D1*
X16197D2*
X17086D1*
X12133Y16226D2*
X13022D1*
X16197D2*
X17085D1*
X12133Y16200D2*
X13022D1*
X16197D2*
X17081D1*
X12133Y16175D2*
X13022D1*
X16197D2*
X17075D1*
X12133Y16150D2*
X13022D1*
X16197D2*
X17069D1*
X12133Y16124D2*
X13022D1*
X16196D2*
X17064D1*
X12133Y16099D2*
X13022D1*
X16192D2*
X17062D1*
X12133Y16073D2*
X13022D1*
X16185D2*
X17061D1*
X12133Y16048D2*
X13022D1*
X16176D2*
X17059D1*
X12133Y16023D2*
X13022D1*
X16165D2*
X17056D1*
X12133Y15997D2*
X13022D1*
X16155D2*
X17048D1*
X12133Y15972D2*
X13022D1*
X16146D2*
X17035D1*
X12133Y15946D2*
X13022D1*
X16137D2*
X17018D1*
X12133Y15921D2*
X13022D1*
X16125D2*
X17003D1*
X12133Y15896D2*
X13022D1*
X16112D2*
X16992D1*
X12133Y15870D2*
X13022D1*
X16096D2*
X16984D1*
X12133Y15845D2*
X13022D1*
X16074D2*
X16975D1*
X12133Y15819D2*
X13022D1*
X16048D2*
X16967D1*
X12133Y15794D2*
X13022D1*
X16022D2*
X16959D1*
X12133Y15769D2*
X13021D1*
X15999D2*
X16950D1*
X12133Y15743D2*
X13017D1*
X13174D2*
D3*
X13250D2*
X13352D1*
X15979D2*
X16942D1*
X12133Y15718D2*
X13008D1*
X13223D2*
X13404D1*
X15961D2*
X16933D1*
X12133Y15692D2*
X12996D1*
X13202D2*
X13454D1*
X15944D2*
X16925D1*
X12133Y15667D2*
X13008D1*
X13188D2*
X13496D1*
X15930D2*
X16916D1*
X12133Y15642D2*
X13015D1*
X13179D2*
X13532D1*
X15917D2*
X16908D1*
X12133Y15616D2*
X13019D1*
X13180D2*
X13569D1*
X15899D2*
X16898D1*
X12133Y15591D2*
X13021D1*
X13185D2*
X13609D1*
X15871D2*
X16887D1*
X12135Y15565D2*
X13023D1*
X13190D2*
X13652D1*
X15836D2*
X16876D1*
X12139Y15540D2*
X13028D1*
X13193D2*
X13697D1*
X15799D2*
X16866D1*
X12153Y15515D2*
X13048D1*
X13098D2*
X13149D1*
X13185D2*
X13738D1*
X15765D2*
X16856D1*
X12166Y15489D2*
X13773D1*
X15737D2*
X16840D1*
X12176Y15464D2*
X13801D1*
X15724D2*
X16820D1*
X12184Y15438D2*
X13824D1*
X15712D2*
X16801D1*
X12192Y15413D2*
X13847D1*
X15698D2*
X16787D1*
X12201Y15388D2*
X13874D1*
X15668D2*
X16774D1*
X12209Y15362D2*
X13904D1*
X15631D2*
X16760D1*
X12218Y15337D2*
X13934D1*
X15511D2*
D3*
X15589D2*
X16745D1*
X12230Y15311D2*
X13964D1*
X15460D2*
X15485D1*
X15539D2*
X16726D1*
X12244Y15286D2*
X13998D1*
X15445D2*
X16707D1*
X12260Y15261D2*
X14036D1*
X15384D2*
D3*
X15423D2*
X16690D1*
X12273Y15235D2*
X14075D1*
X15333D2*
X15358D1*
X15397D2*
X16674D1*
X12284Y15210D2*
X14111D1*
X15340D2*
X16656D1*
X12299Y15184D2*
X14144D1*
X15344D2*
X16633D1*
X12320Y15159D2*
X14182D1*
X15265D2*
X16607D1*
X12345Y15134D2*
X14228D1*
X15181D2*
X16580D1*
X12370Y15108D2*
X14289D1*
X15206D2*
X16553D1*
X12396Y15083D2*
X14377D1*
X15097D2*
X16527D1*
X12425Y15057D2*
X14518D1*
X14931D2*
X16501D1*
X12455Y15032D2*
X13255D1*
X13291D2*
X14728D1*
X14695D2*
X16473D1*
X12484Y15007D2*
X13216D1*
X13345D2*
X16446D1*
X12509Y14981D2*
X13184D1*
X13384D2*
X16423D1*
X12531Y14956D2*
X13158D1*
X13412D2*
X16406D1*
X12553Y14930D2*
X13131D1*
X13434D2*
X16389D1*
X12575Y14905D2*
X13103D1*
X13458D2*
X16368D1*
X12596Y14880D2*
X13075D1*
X13486D2*
X16342D1*
X12619Y14854D2*
X13047D1*
X13519D2*
X16310D1*
X12647Y14829D2*
X13063D1*
X13557D2*
X16272D1*
X12680Y14803D2*
X12768D1*
X12827D2*
X13076D1*
X13594D2*
X16230D1*
X12717Y14778D2*
X12742D1*
X12868D2*
X13086D1*
X13629D2*
X16187D1*
X12911Y14753D2*
X13092D1*
X13661D2*
X16149D1*
X12953Y14727D2*
X13093D1*
X13693D2*
X16117D1*
X12998Y14702D2*
X13084D1*
X13726D2*
X16087D1*
X13047Y14676D2*
X13072D1*
X13763D2*
X16053D1*
X13804Y14651D2*
X16016D1*
X13849Y14626D2*
X15979D1*
X13900Y14600D2*
X15942D1*
X13954Y14575D2*
X15900D1*
X14003Y14549D2*
X15852D1*
X14044Y14524D2*
X15806D1*
X14081Y14499D2*
X15767D1*
X14124Y14473D2*
X15733D1*
X14177Y14448D2*
X15694D1*
X14237Y14422D2*
X15650D1*
X14302Y14397D2*
X15602D1*
X14376Y14372D2*
X15551D1*
X14466Y14346D2*
X15492D1*
X14567Y14321D2*
X15427D1*
X14673Y14295D2*
X15358D1*
X13885Y18842D2*
X13807Y18817D1*
X13743Y18791D1*
X13691Y18766D1*
X13668Y18740D1*
X13644Y18715D1*
X13616Y18690D1*
X13583Y18664D1*
X13548Y18639D1*
X13512Y18613D1*
X13476Y18588D1*
X13440Y18563D1*
X13407Y18537D1*
X13392Y18512D1*
X13383Y18486D1*
X13377Y18461D1*
X13301D1*
X13279Y18436D1*
X13253Y18410D1*
X13225Y18385D1*
X13196Y18359D1*
X13165Y18334D1*
X13136Y18309D1*
X13112Y18283D1*
X13091Y18258D1*
X13069Y18232D1*
X13046Y18207D1*
X13025Y18182D1*
X13005Y18156D1*
X12983Y18131D1*
X12957Y18105D1*
X12931Y18080D1*
X12908Y18055D1*
X12888Y18029D1*
X12866Y18004D1*
X12843Y17978D1*
X12822Y17953D1*
X12802Y17928D1*
X12781Y17902D1*
X12757Y17877D1*
X12735Y17851D1*
X12716Y17826D1*
X12699Y17801D1*
X12683Y17775D1*
X12666Y17750D1*
X12649Y17724D1*
X12632Y17699D1*
X12614Y17674D1*
X12594Y17648D1*
X12571Y17623D1*
X12547Y17597D1*
X12527Y17572D1*
X12510Y17547D1*
X12496Y17521D1*
X12483Y17496D1*
X12473Y17470D1*
X12463Y17445D1*
X12454Y17420D1*
X12443Y17394D1*
X12431Y17369D1*
X12421Y17343D1*
X12413Y17318D1*
X12404Y17293D1*
X12394Y17267D1*
X12382Y17242D1*
X12367Y17216D1*
X12349Y17191D1*
X12333Y17166D1*
X12318Y17140D1*
X12306Y17115D1*
X12296Y17089D1*
X12289Y17064D1*
X12283Y17039D1*
X12276Y17013D1*
X12268Y16988D1*
X12263Y16962D1*
X12257Y16937D1*
X12250Y16912D1*
X12242Y16886D1*
X12234Y16861D1*
X12226Y16835D1*
X12218Y16810D1*
X12213Y16785D1*
X12210Y16759D1*
X12205Y16734D1*
X12199Y16708D1*
X12192Y16683D1*
X12188Y16658D1*
X12185Y16632D1*
X12184Y16607D1*
X12182Y16581D1*
X12175Y16556D1*
X12163Y16531D1*
X12150Y16505D1*
X12141Y16480D1*
X12136Y16454D1*
X12134Y16429D1*
X12133Y16404D1*
Y16378D1*
Y16353D1*
Y16327D1*
Y16302D1*
Y16277D1*
Y16251D1*
Y16226D1*
Y16200D1*
Y16175D1*
Y16150D1*
Y16124D1*
Y16099D1*
Y16073D1*
Y16048D1*
Y16023D1*
Y15997D1*
Y15972D1*
Y15946D1*
Y15921D1*
Y15896D1*
Y15870D1*
Y15845D1*
Y15819D1*
Y15794D1*
Y15769D1*
Y15743D1*
Y15718D1*
Y15692D1*
Y15667D1*
Y15642D1*
Y15616D1*
Y15591D1*
X12135Y15565D1*
X12139Y15540D1*
X12153Y15515D1*
X12166Y15489D1*
X12176Y15464D1*
X12184Y15438D1*
X12192Y15413D1*
X12201Y15388D1*
X12209Y15362D1*
X12218Y15337D1*
X12230Y15311D1*
X12244Y15286D1*
X12260Y15261D1*
X12273Y15235D1*
X12284Y15210D1*
X12299Y15184D1*
X12320Y15159D1*
X12345Y15134D1*
X12370Y15108D1*
X12396Y15083D1*
X12425Y15057D1*
X12455Y15032D1*
X12484Y15007D1*
X12509Y14981D1*
X12531Y14956D1*
X12553Y14930D1*
X12575Y14905D1*
X12596Y14880D1*
X12619Y14854D1*
X12647Y14829D1*
X12680Y14803D1*
X12717Y14778D1*
X14901Y18842D2*
X15035Y18817D1*
X15157Y18791D1*
X15249Y18766D1*
X15316Y18740D1*
X15377Y18715D1*
X15439Y18690D1*
X15499Y18664D1*
X15556Y18639D1*
X15610Y18613D1*
X15661Y18588D1*
X15708Y18563D1*
X15747Y18537D1*
X15781Y18512D1*
X15817Y18486D1*
X15856Y18461D1*
X15895Y18436D1*
X15933Y18410D1*
X15971Y18385D1*
X16012Y18359D1*
X16051Y18334D1*
X16082Y18309D1*
X16107Y18283D1*
X16129Y18258D1*
X16158Y18232D1*
X16193Y18207D1*
X16231Y18182D1*
X16265Y18156D1*
X16295Y18131D1*
X16321Y18105D1*
X16343Y18080D1*
X16360Y18055D1*
X16374Y18029D1*
X16391Y18004D1*
X16416Y17978D1*
X16445Y17953D1*
X16473Y17928D1*
X16499Y17902D1*
X16522Y17877D1*
X16541Y17851D1*
X16557Y17826D1*
X16572Y17801D1*
X16592Y17775D1*
X16617Y17750D1*
X16643Y17724D1*
X16666Y17699D1*
X16686Y17674D1*
X16707Y17648D1*
X16726Y17623D1*
X16741Y17597D1*
X16753Y17572D1*
X16765Y17547D1*
X16781Y17521D1*
X16801Y17496D1*
X16824Y17470D1*
X16844Y17445D1*
X16860Y17420D1*
X16875Y17394D1*
X16887Y17369D1*
X16898Y17343D1*
X16907Y17318D1*
X16916Y17293D1*
X16925Y17267D1*
X16933Y17242D1*
X16942Y17216D1*
X16950Y17191D1*
X16958Y17166D1*
X16967Y17140D1*
X16975Y17115D1*
X16982Y17089D1*
X16991Y17064D1*
X17004Y17039D1*
X17017Y17013D1*
X17027Y16988D1*
X17035Y16962D1*
X17044Y16937D1*
X17051Y16912D1*
X17057Y16886D1*
X17063Y16861D1*
X17070Y16835D1*
X17077Y16810D1*
X17081Y16785D1*
X17084Y16759D1*
X17085Y16734D1*
Y16708D1*
X17086Y16683D1*
Y16658D1*
Y16632D1*
Y16607D1*
Y16581D1*
Y16556D1*
Y16531D1*
Y16505D1*
Y16480D1*
Y16454D1*
Y16429D1*
Y16404D1*
Y16378D1*
Y16353D1*
Y16327D1*
Y16302D1*
Y16277D1*
Y16251D1*
X17085Y16226D1*
X17081Y16200D1*
X17075Y16175D1*
X17069Y16150D1*
X17064Y16124D1*
X17062Y16099D1*
X17061Y16073D1*
X17059Y16048D1*
X17056Y16023D1*
X17048Y15997D1*
X17035Y15972D1*
X17018Y15946D1*
X17003Y15921D1*
X16992Y15896D1*
X16984Y15870D1*
X16975Y15845D1*
X16967Y15819D1*
X16959Y15794D1*
X16950Y15769D1*
X16942Y15743D1*
X16933Y15718D1*
X16925Y15692D1*
X16916Y15667D1*
X16908Y15642D1*
X16898Y15616D1*
X16887Y15591D1*
X16876Y15565D1*
X16866Y15540D1*
X16856Y15515D1*
X16840Y15489D1*
X16820Y15464D1*
X16801Y15438D1*
X16787Y15413D1*
X16774Y15388D1*
X16760Y15362D1*
X16745Y15337D1*
X16726Y15311D1*
X16707Y15286D1*
X16690Y15261D1*
X16674Y15235D1*
X16656Y15210D1*
X16633Y15184D1*
X16607Y15159D1*
X16580Y15134D1*
X16553Y15108D1*
X16527Y15083D1*
X16501Y15057D1*
X16473Y15032D1*
X16446Y15007D1*
X16423Y14981D1*
X16406Y14956D1*
X16389Y14930D1*
X16368Y14905D1*
X16342Y14880D1*
X16310Y14854D1*
X16272Y14829D1*
X16230Y14803D1*
X16187Y14778D1*
X16149Y14753D1*
X16117Y14727D1*
X16087Y14702D1*
X16053Y14676D1*
X16016Y14651D1*
X15979Y14626D1*
X15942Y14600D1*
X15900Y14575D1*
X15852Y14549D1*
X15806Y14524D1*
X15767Y14499D1*
X15733Y14473D1*
X15694Y14448D1*
X15650Y14422D1*
X15602Y14397D1*
X15551Y14372D1*
X15492Y14346D1*
X15427Y14321D1*
X15358Y14295D1*
X13504Y18664D2*
X13555Y18639D1*
X13516Y18613D1*
X13478Y18588D1*
X13441Y18563D1*
X13407Y18537D1*
X13392Y18512D1*
X13383Y18486D1*
X13377Y18461D1*
X13301D1*
X13279Y18436D1*
X13253Y18410D1*
X13225Y18385D1*
X13196Y18359D1*
X13165Y18334D1*
X13136Y18309D1*
X13112Y18283D1*
X13091Y18258D1*
X13069Y18232D1*
X13046Y18207D1*
X13025Y18182D1*
X13005Y18156D1*
X12983Y18131D1*
X12957Y18105D1*
X12931Y18080D1*
X12908Y18055D1*
X12888Y18029D1*
X12866Y18004D1*
X12843Y17978D1*
X12822Y17953D1*
X12802Y17928D1*
X12781Y17902D1*
X12757Y17877D1*
X12735Y17851D1*
X12716Y17826D1*
X12699Y17801D1*
X12683Y17775D1*
X12666Y17750D1*
X12649Y17724D1*
X12632Y17699D1*
X12614Y17674D1*
X12594Y17648D1*
X12571Y17623D1*
X12547Y17597D1*
X12527Y17572D1*
X12510Y17547D1*
X12496Y17521D1*
X12483Y17496D1*
X12473Y17470D1*
X12463Y17445D1*
X12454Y17420D1*
X12443Y17394D1*
X12431Y17369D1*
X12421Y17343D1*
X12413Y17318D1*
X12404Y17293D1*
X12394Y17267D1*
X12382Y17242D1*
X12367Y17216D1*
X12349Y17191D1*
X12333Y17166D1*
X12318Y17140D1*
X12306Y17115D1*
X12296Y17089D1*
X12289Y17064D1*
X12283Y17039D1*
X12276Y17013D1*
X12268Y16988D1*
X12263Y16962D1*
X12257Y16937D1*
X12250Y16912D1*
X12242Y16886D1*
X12234Y16861D1*
X12226Y16835D1*
X12218Y16810D1*
X12213Y16785D1*
X12210Y16759D1*
X12205Y16734D1*
X12199Y16708D1*
X12192Y16683D1*
X12188Y16658D1*
X12185Y16632D1*
X12184Y16607D1*
X12182Y16581D1*
X12175Y16556D1*
X12163Y16531D1*
X12150Y16505D1*
X12141Y16480D1*
X12136Y16454D1*
X12134Y16429D1*
X12133Y16404D1*
Y16378D1*
Y16353D1*
Y16327D1*
Y16302D1*
Y16277D1*
Y16251D1*
Y16226D1*
Y16200D1*
Y16175D1*
Y16150D1*
Y16124D1*
Y16099D1*
Y16073D1*
Y16048D1*
Y16023D1*
Y15997D1*
Y15972D1*
Y15946D1*
Y15921D1*
Y15896D1*
Y15870D1*
Y15845D1*
Y15819D1*
Y15794D1*
Y15769D1*
Y15743D1*
Y15718D1*
Y15692D1*
Y15667D1*
Y15642D1*
Y15616D1*
Y15591D1*
X12135Y15565D1*
X12139Y15540D1*
X12153Y15515D1*
X12166Y15489D1*
X12176Y15464D1*
X12184Y15438D1*
X12192Y15413D1*
X12201Y15388D1*
X12209Y15362D1*
X12218Y15337D1*
X12230Y15311D1*
X12244Y15286D1*
X12260Y15261D1*
X12273Y15235D1*
X12284Y15210D1*
X12299Y15184D1*
X12320Y15159D1*
X12345Y15134D1*
X12370Y15108D1*
X12396Y15083D1*
X12425Y15057D1*
X12455Y15032D1*
X12484Y15007D1*
X12509Y14981D1*
X12531Y14956D1*
X12553Y14930D1*
X12575Y14905D1*
X12596Y14880D1*
X12619Y14854D1*
X12647Y14829D1*
X12680Y14803D1*
X12717Y14778D1*
X13530Y18664D2*
X13453Y18639D2*
X13428Y18613D2*
X14469Y18131D2*
X14355Y18105D1*
X14259Y18080D1*
X14185Y18055D1*
X14126Y18029D1*
X14073Y18004D1*
X14026Y17978D1*
X13984Y17953D1*
X13945Y17928D1*
X13910Y17902D1*
X13881Y17877D1*
X13857Y17851D1*
X13836Y17826D1*
X13814Y17801D1*
X13791Y17775D1*
X13766Y17750D1*
X13741Y17724D1*
X13715Y17699D1*
X13687Y17674D1*
X13659Y17648D1*
X13633Y17623D1*
X13610Y17597D1*
X13591Y17572D1*
X13571Y17547D1*
X13548Y17521D1*
X13522Y17496D1*
X13497Y17470D1*
X13474Y17445D1*
X13451Y17420D1*
X13428Y17394D1*
X13407Y17369D1*
X13392Y17343D1*
X13379Y17318D1*
X13364Y17293D1*
X13343Y17267D1*
X13318Y17242D1*
X13294Y17216D1*
X13272Y17191D1*
X13252Y17166D1*
X13235Y17140D1*
X13221Y17115D1*
X13210Y17089D1*
X13200Y17064D1*
X13191Y17039D1*
X13182Y17013D1*
X13174Y16988D1*
X13165Y16962D1*
X13156Y16937D1*
X13145Y16912D1*
X13130Y16886D1*
X13115Y16861D1*
X13102Y16835D1*
X13091Y16810D1*
X13082Y16785D1*
X13076Y16759D1*
X13070Y16734D1*
X13063Y16708D1*
X13056Y16683D1*
X13051Y16658D1*
X13048Y16632D1*
X13043Y16607D1*
X13037Y16581D1*
X13030Y16556D1*
X13026Y16531D1*
X13023Y16505D1*
X13022Y16480D1*
Y16454D1*
Y16429D1*
Y16404D1*
Y16378D1*
Y16353D1*
Y16327D1*
Y16302D1*
Y16277D1*
Y16251D1*
Y16226D1*
Y16200D1*
Y16175D1*
Y16150D1*
Y16124D1*
Y16099D1*
Y16073D1*
Y16048D1*
Y16023D1*
Y15997D1*
Y15972D1*
Y15946D1*
Y15921D1*
Y15896D1*
Y15870D1*
Y15845D1*
Y15819D1*
Y15794D1*
X13021Y15769D1*
X13017Y15743D1*
X13008Y15718D1*
X12996Y15692D1*
X13008Y15667D1*
X13015Y15642D1*
X13019Y15616D1*
X13021Y15591D1*
X13023Y15565D1*
X13028Y15540D1*
X13048Y15515D1*
X13072Y15489D1*
X14876Y18131D2*
X15022Y18105D1*
X15151Y18080D1*
X15250Y18055D1*
X15321Y18029D1*
X15382Y18004D1*
X15438Y17978D1*
X15487Y17953D1*
X15529Y17928D1*
X15568Y17902D1*
X15606Y17877D1*
X15642Y17851D1*
X15674Y17826D1*
X15699Y17801D1*
X15720Y17775D1*
X15742Y17750D1*
X15762Y17724D1*
X15781Y17699D1*
X15800Y17674D1*
X15824Y17648D1*
X15852Y17623D1*
X15879Y17597D1*
X15899Y17572D1*
X15914Y17547D1*
X15928Y17521D1*
X15944Y17496D1*
X15959Y17470D1*
X15973Y17445D1*
X15987Y17420D1*
X16003Y17394D1*
X16019Y17369D1*
X16033Y17343D1*
X16046Y17318D1*
X16062Y17293D1*
X16077Y17267D1*
X16087Y17242D1*
X16096Y17216D1*
X16105Y17191D1*
X16116Y17166D1*
X16126Y17140D1*
X16135Y17115D1*
X16141Y17089D1*
X16145Y17064D1*
X16149Y17039D1*
X16156Y17013D1*
X16164Y16988D1*
X16171Y16962D1*
X16180Y16937D1*
X16187Y16912D1*
X16192Y16886D1*
X16195Y16861D1*
X16196Y16835D1*
Y16810D1*
X16197Y16785D1*
Y16759D1*
Y16734D1*
Y16708D1*
Y16683D1*
Y16658D1*
Y16632D1*
Y16607D1*
Y16581D1*
Y16556D1*
Y16531D1*
Y16505D1*
Y16480D1*
Y16454D1*
Y16429D1*
Y16404D1*
Y16378D1*
Y16353D1*
Y16327D1*
Y16302D1*
Y16277D1*
Y16251D1*
Y16226D1*
Y16200D1*
Y16175D1*
Y16150D1*
X16196Y16124D1*
X16192Y16099D1*
X16185Y16073D1*
X16176Y16048D1*
X16165Y16023D1*
X16155Y15997D1*
X16146Y15972D1*
X16137Y15946D1*
X16125Y15921D1*
X16112Y15896D1*
X16096Y15870D1*
X16074Y15845D1*
X16048Y15819D1*
X16022Y15794D1*
X15999Y15769D1*
X15979Y15743D1*
X15961Y15718D1*
X15944Y15692D1*
X15930Y15667D1*
X15917Y15642D1*
X15899Y15616D1*
X15871Y15591D1*
X15836Y15565D1*
X15799Y15540D1*
X15765Y15515D1*
X15737Y15489D1*
X15724Y15464D1*
X15712Y15438D1*
X15698Y15413D1*
X15668Y15388D1*
X15631Y15362D1*
X15589Y15337D1*
X15539Y15311D1*
X15485Y15286D1*
X13174Y15743D2*
X13184Y15718D1*
X13183Y15692D1*
X13180Y15667D1*
X13178Y15642D1*
X13180Y15616D1*
X13185Y15591D1*
X13190Y15565D1*
X13193Y15540D1*
X13185Y15515D1*
X13174Y15489D1*
X13250Y15743D2*
X13223Y15718D1*
X13202Y15692D1*
X13188Y15667D1*
X13179Y15642D1*
X13180Y15616D1*
X13185Y15591D1*
X13190Y15565D1*
X13193Y15540D1*
X13185Y15515D1*
X13174Y15489D1*
X13352Y15743D2*
X13404Y15718D1*
X13454Y15692D1*
X13496Y15667D1*
X13532Y15642D1*
X13569Y15616D1*
X13609Y15591D1*
X13652Y15565D1*
X13697Y15540D1*
X13738Y15515D1*
X13773Y15489D1*
X13801Y15464D1*
X13824Y15438D1*
X13847Y15413D1*
X13874Y15388D1*
X13904Y15362D1*
X13934Y15337D1*
X13964Y15311D1*
X13998Y15286D1*
X14036Y15261D1*
X14075Y15235D1*
X14111Y15210D1*
X14144Y15184D1*
X14182Y15159D1*
X14228Y15134D1*
X14289Y15108D1*
X14377Y15083D1*
X14518Y15057D1*
X14728Y15032D1*
X14977Y15007D1*
X13098Y15515D2*
X13072Y15489D1*
X13149Y15515D2*
X13174Y15489D1*
X15511Y15337D2*
X15485Y15311D1*
X15460D2*
X15445Y15286D1*
X15423Y15261D1*
X15393Y15235D1*
X15358Y15210D1*
X15485Y15311D2*
X15511Y15286D1*
X15384Y15261D2*
X15397Y15235D1*
X15409Y15210D1*
X15333Y15235D2*
X15340Y15210D1*
X15344Y15184D1*
X15265Y15159D1*
X15181Y15134D1*
X15206Y15108D1*
X15097Y15083D1*
X14931Y15057D1*
X14695Y15032D1*
X14419Y15007D1*
X15358Y15235D2*
X15384Y15210D1*
X13301Y15057D2*
X13255Y15032D1*
X13216Y15007D1*
X13184Y14981D1*
X13158Y14956D1*
X13131Y14930D1*
X13103Y14905D1*
X13075Y14880D1*
X13047Y14854D1*
X13063Y14829D1*
X13076Y14803D1*
X13086Y14778D1*
X13092Y14753D1*
X13093Y14727D1*
X13084Y14702D1*
X13072Y14676D1*
X13225Y15057D2*
X13291Y15032D1*
X13345Y15007D1*
X13384Y14981D1*
X13412Y14956D1*
X13434Y14930D1*
X13458Y14905D1*
X13486Y14880D1*
X13519Y14854D1*
X13557Y14829D1*
X13594Y14803D1*
X13629Y14778D1*
X13661Y14753D1*
X13693Y14727D1*
X13726Y14702D1*
X13763Y14676D1*
X13804Y14651D1*
X13849Y14626D1*
X13900Y14600D1*
X13954Y14575D1*
X14003Y14549D1*
X14044Y14524D1*
X14081Y14499D1*
X14124Y14473D1*
X14177Y14448D1*
X14237Y14422D1*
X14302Y14397D1*
X14376Y14372D1*
X14466Y14346D1*
X14567Y14321D1*
X14673Y14295D1*
X12793Y14829D2*
X12768Y14803D1*
X12742Y14778D1*
X12793Y14829D2*
X12827Y14803D1*
X12868Y14778D1*
X12911Y14753D1*
X12953Y14727D1*
X12998Y14702D1*
X13047Y14676D1*
X23276Y6310D2*
D55*
Y5399D1*
X23337Y5216D1*
X23459Y5096D1*
X23641Y5034D1*
X23762D1*
X23944Y5096D1*
X24067Y5216D1*
X24127Y5399D1*
Y6310D1*
X24519Y6066D2*
X24641Y6127D1*
X24824Y6308D1*
Y5034D1*
X12807Y6607D2*
X12747Y6727D1*
X12625Y6850D1*
X12504Y6910D1*
X12261D1*
X12139Y6850D1*
X12018Y6727D1*
X11956Y6607D1*
X11896Y6424D1*
Y6120D1*
X11956Y5938D1*
X12018Y5816D1*
X12139Y5696D1*
X12261Y5634D1*
X12504D1*
X12625Y5696D1*
X12747Y5816D1*
X12807Y5938D1*
X13199Y6666D2*
X13321Y6727D1*
X13504Y6908D1*
Y5634D1*
X14203Y5402D2*
X14749D1*
X14932Y5464D1*
X14994Y5524D1*
X15054Y5645D1*
Y5767D1*
X14994Y5888D1*
X14932Y5950D1*
X14749Y6010D1*
X14203D1*
Y4734D1*
X14629Y5402D2*
X15054Y4734D1*
X15508Y5705D2*
Y5766D1*
X15568Y5888D1*
X15629Y5948D1*
X15751Y6008D1*
X15994D1*
X16114Y5948D1*
X16175Y5888D1*
X16236Y5766D1*
Y5645D1*
X16175Y5523D1*
X16054Y5342D1*
X15446Y4734D1*
X16297D1*
X25498Y11953D2*
Y12499D1*
X25436Y12682D1*
X25376Y12744D1*
X25255Y12804D1*
X25133D1*
X25012Y12744D1*
X24951Y12682D1*
X24890Y12499D1*
Y11953D1*
X26166D1*
X25498Y12379D2*
X26166Y12804D1*
X24892Y13318D2*
Y13985D1*
X25377Y13621D1*
Y13804D1*
X25438Y13925D1*
X25498Y13985D1*
X25681Y14047D1*
X25801D1*
X25984Y13985D1*
X26106Y13864D1*
X26166Y13682D1*
Y13499D1*
X26106Y13318D1*
X26044Y13258D1*
X25923Y13196D1*
X14123Y3152D2*
X14669D1*
X14852Y3214D1*
X14913Y3274D1*
X14974Y3395D1*
Y3517D1*
X14913Y3638D1*
X14852Y3700D1*
X14669Y3760D1*
X14123D1*
Y2484D1*
X14548Y3152D2*
X14974Y2484D1*
X15974D2*
Y3758D1*
X15366Y2909D1*
X16277D1*
X14357Y7710D2*
X14236Y7651D1*
X14114Y7529D1*
X14054Y7407D1*
X13992Y7224D1*
Y6921D1*
X14054Y6739D1*
X14114Y6618D1*
X14236Y6496D1*
X14357Y6435D1*
X14600D1*
X14722Y6496D1*
X14843Y6618D1*
X14903Y6739D1*
X14965Y6921D1*
Y7224D1*
X14903Y7407D1*
X14843Y7529D1*
X14722Y7651D1*
X14600Y7710D1*
X14357D1*
X14540Y6678D2*
X14903Y6313D1*
X15419Y7405D2*
Y7466D1*
X15479Y7588D1*
X15540Y7648D1*
X15662Y7709D1*
X15905D1*
X16025Y7648D1*
X16086Y7588D1*
X16148Y7466D1*
Y7345D1*
X16086Y7223D1*
X15965Y7042D1*
X15357Y6434D1*
X16208D1*
X33074Y5921D2*
D56*
Y4171D1*
X32200Y5045D2*
X33950D1*
X33290Y14413D2*
Y15536D1*
X2716Y16226D2*
X2619Y16419D1*
X2327Y16515D1*
X2134D1*
X1842Y16419D1*
X1647Y16127D1*
X1550Y15642D1*
Y15156D1*
X1647Y14768D1*
X1842Y14572D1*
X2134Y14476D1*
X2231D1*
X2520Y14572D1*
X2716Y14768D1*
X2812Y15060D1*
Y15156D1*
X2716Y15448D1*
X2520Y15642D1*
X2231Y15738D1*
X2134D1*
X1842Y15642D1*
X1647Y15448D1*
X1550Y15156D1*
X3440Y15496D2*
X4563D1*
X5289Y16030D2*
Y16127D1*
X5386Y16322D1*
X5482Y16419D1*
X5678Y16515D1*
X6066D1*
X6259Y16419D1*
X6356Y16322D1*
X6455Y16127D1*
Y15934D1*
X6356Y15738D1*
X6163Y15448D1*
X5190Y14476D1*
X6551D1*
X8152D2*
Y16515D1*
X7179Y15156D1*
X8637D1*
X9264Y16518D2*
X10041Y14476D1*
X10818Y16518D1*
X2763Y3420D2*
X1983Y5462D1*
X1206Y3420D1*
X1498Y4100D2*
X2471D1*
X4848Y4976D2*
X4751Y5170D1*
X4556Y5365D1*
X4363Y5462D1*
X3974D1*
X3779Y5365D1*
X3586Y5170D1*
X3487Y4976D1*
X3390Y4684D1*
Y4197D1*
X3487Y3907D1*
X3586Y3712D1*
X3779Y3519D1*
X3974Y3420D1*
X4363D1*
X4556Y3519D1*
X4751Y3712D1*
X4848Y3907D1*
X5475Y3420D2*
X6837Y5459D1*
X7464Y5462D2*
Y3420D1*
X8145D1*
X8437Y3519D1*
X8632Y3712D1*
X8729Y3907D1*
X8825Y4197D1*
Y4684D1*
X8729Y4976D1*
X8632Y5170D1*
X8437Y5365D1*
X8145Y5462D1*
X7464D1*
X10910Y4976D2*
X10814Y5170D1*
X10618Y5365D1*
X10425Y5462D1*
X10037D1*
X9841Y5365D1*
X9648Y5170D1*
X9549Y4976D1*
X9453Y4684D1*
Y4197D1*
X9549Y3907D1*
X9648Y3712D1*
X9841Y3519D1*
X10037Y3420D1*
X10425D1*
X10618Y3519D1*
X10814Y3712D1*
X10910Y3907D1*
X1456Y19262D2*
Y17220D1*
X2084Y18581D2*
Y17220D1*
Y18192D2*
X2376Y18484D1*
X2571Y18581D1*
X2861D1*
X3056Y18484D1*
X3153Y18192D1*
Y17220D1*
X29940Y18712D2*
X29745Y18615D1*
X29552Y18420D1*
X29453Y18226D1*
X29356Y17934D1*
Y17447D1*
X29453Y17157D1*
X29552Y16962D1*
X29745Y16769D1*
X29940Y16670D1*
X30329D1*
X30522Y16769D1*
X30717Y16962D1*
X30814Y17157D1*
X30910Y17447D1*
Y17934D1*
X30814Y18226D1*
X30717Y18420D1*
X30522Y18615D1*
X30329Y18712D1*
X29940D1*
X31538Y18031D2*
Y17058D1*
X31634Y16769D1*
X31830Y16670D1*
X32122D1*
X32315Y16769D1*
X32607Y17058D1*
Y18031D2*
Y16670D1*
X33527Y18712D2*
Y17058D1*
X33623Y16769D1*
X33819Y16670D1*
X34012D1*
X33235Y18031D2*
X33915D1*
X17872Y18012D2*
D16*
Y16991D1*
X18552Y18012D2*
X17872Y17332D1*
X18114Y17575D2*
X18552Y16991D1*
X18866Y17672D2*
Y16991D1*
Y17380D2*
X18915Y17526D1*
X19012Y17624D1*
X19110Y17672D1*
X19256D1*
X19569Y17380D2*
X20152D1*
Y17478D1*
X20104Y17575D1*
X20056Y17624D1*
X19958Y17672D1*
X19812D1*
X19715Y17624D1*
X19618Y17526D1*
X19569Y17380D1*
Y17283D1*
X19618Y17137D1*
X19715Y17041D1*
X19812Y16991D1*
X19958D1*
X20056Y17041D1*
X20152Y17137D1*
X20466Y17672D2*
Y16991D1*
Y17478D2*
X20612Y17624D1*
X20710Y17672D1*
X20854D1*
X20952Y17624D1*
X21000Y17478D1*
Y16991D1*
Y17478D2*
X21146Y17624D1*
X21244Y17672D1*
X21389D1*
X21487Y17624D1*
X21536Y17478D1*
Y16991D1*
X21850Y17672D2*
Y16991D1*
Y17478D2*
X21996Y17624D1*
X22094Y17672D1*
X22239D1*
X22336Y17624D1*
X22385Y17478D1*
Y16991D1*
Y17478D2*
X22531Y17624D1*
X22628Y17672D1*
X22773D1*
X22871Y17624D1*
X22920Y17478D1*
Y16991D1*
X23234Y17380D2*
X23817D1*
Y17478D1*
X23769Y17575D1*
X23720Y17624D1*
X23623Y17672D1*
X23477D1*
X23380Y17624D1*
X23282Y17526D1*
X23234Y17380D1*
Y17283D1*
X23282Y17137D1*
X23380Y17041D1*
X23477Y16991D1*
X23623D1*
X23720Y17041D1*
X23817Y17137D1*
X24131Y17672D2*
Y16991D1*
Y17478D2*
X24277Y17624D1*
X24374Y17672D1*
X24519D1*
X24617Y17624D1*
X24665Y17478D1*
Y16991D1*
X17921Y15769D2*
Y15817D1*
X17969Y15915D1*
X18018Y15963D1*
X18115Y16011D1*
X18310D1*
X18406Y15963D1*
X18454Y15915D1*
X18504Y15817D1*
Y15720D1*
X18454Y15623D1*
X18358Y15478D1*
X17872Y14991D1*
X18552D1*
X19158Y16011D2*
X19012Y15963D1*
X18914Y15817D1*
X18866Y15574D1*
Y15428D1*
X18914Y15186D1*
X19012Y15040D1*
X19158Y14991D1*
X19254D1*
X19400Y15040D1*
X19497Y15186D1*
X19546Y15428D1*
Y15574D1*
X19497Y15817D1*
X19400Y15963D1*
X19254Y16011D1*
X19158D1*
X19497Y15817D2*
X18914Y15186D1*
X19860Y15817D2*
X19958Y15866D1*
X20104Y16011D1*
Y14991D1*
X21000Y16011D2*
X20515D1*
X20467Y15574D1*
X20515Y15623D1*
X20661Y15672D1*
X20806D1*
X20952Y15623D1*
X21050Y15526D1*
X21098Y15380D1*
Y15283D1*
X21050Y15137D1*
X20952Y15040D1*
X20806Y14991D1*
X20661D1*
X20515Y15040D1*
X20467Y15089D1*
X20418Y15186D1*
M02*
